<mxfile host="app.diagrams.net" modified="2020-04-15T16:30:59.240Z" agent="5.0 (Windows NT 10.0; Win64; x64) AppleWebKit/537.36 (KHTML, like Gecko) Chrome/80.0.3987.163 Safari/537.36" etag="lM11Io5RdV5lUM1ecY3b" version="12.9.10" type="github">
  <diagram id="YpBe-z9ydHaREtKA_Qj9" name="Page-1">
    <mxGraphModel dx="740" dy="2014" grid="1" gridSize="10" guides="1" tooltips="1" connect="1" arrows="1" fold="1" page="1" pageScale="1" pageWidth="827" pageHeight="1169" math="0" shadow="0">
      <root>
        <mxCell id="0" />
        <mxCell id="1" parent="0" />
        <mxCell id="3LTx538stvDvCSywU0wL-1" value="" style="whiteSpace=wrap;html=1;aspect=fixed;" vertex="1" parent="1">
          <mxGeometry x="300" y="-90" width="1200" height="1200" as="geometry" />
        </mxCell>
        <mxCell id="3LTx538stvDvCSywU0wL-3" value="Actor" style="shape=umlActor;verticalLabelPosition=bottom;labelBackgroundColor=#ffffff;verticalAlign=top;html=1;" vertex="1" parent="1">
          <mxGeometry x="170" y="-10" width="40" height="70" as="geometry" />
        </mxCell>
      </root>
    </mxGraphModel>
  </diagram>
</mxfile>
